<?xml version="1.0" encoding="UTF-8"?>
<svg xmlns="http://www.w3.org/2000/svg" width="177" height="121" viewBox="0 0 177 121" fill="none">
  <path d="M50.8502 32.8631H28.9607V25.195C28.9607 20.3612 28.7527 17.3357 28.3368 16.1186C27.9208 14.9014 26.9329 14.2928 25.3731 14.2928C24.0213 14.2928 23.1027 14.8145 22.6174 15.8577C22.1322 16.901 21.8895 19.5787 21.8895 23.8909V64.4221C21.8895 68.2126 22.1322 70.7165 22.6174 71.9336C23.1027 73.116 24.0733 73.7072 25.5291 73.7072C27.1236 73.7072 28.1981 73.029 28.7527 71.6728C29.342 70.3165 29.6366 67.6736 29.6366 63.7439V53.7285H25.2171V40.8963H50.8502V86.2264H37.0718L35.044 80.1755C33.5535 82.7836 31.6644 84.7485 29.3767 86.07C27.1236 87.3567 24.4546 88 21.3696 88C17.6953 88 14.2464 87.1132 11.0227 85.3397C7.83378 83.5313 5.40739 81.3057 3.74357 78.6627C2.07976 76.0198 1.03988 73.2551 0.623929 70.3687C0.207976 67.4475 0 63.0832 0 57.2756V32.1849C0 24.117 0.433284 18.2573 1.29985 14.6058C2.16642 10.9544 4.64481 7.61589 8.73501 4.5904C12.8599 1.53013 18.1806 0 24.6972 0C31.1098 0 36.4305 1.32148 40.6594 3.96443C44.8882 6.60739 47.6439 9.75459 48.9264 13.406C50.209 17.0227 50.8502 22.2912 50.8502 29.2116V32.8631Z" fill="#8E8684"></path>
  <path d="M103.468 1.77356V18.6746H90.4697V86.2264H68.5802V18.6746H55.6337V1.77356H103.468Z" fill="#8E8684"></path>
  <path d="M176 1.77356V86.2264H156.866V29.2116L149.223 86.2264H135.653L127.593 30.5157V86.2264H108.46V1.77356H136.796C137.628 6.85082 138.512 12.8322 139.448 19.7178L142.464 41.2092L147.455 1.77356H176Z" fill="#8E8684"></path>
  <path d="M15.76 109.04C17.232 109.36 18.3627 110 19.152 110.96C19.9627 111.899 20.368 113.115 20.368 114.608C20.368 116.528 19.6533 118.011 18.224 119.056C16.816 120.08 14.7253 120.592 11.952 120.592H1.64799V98.192H11.312C13.808 98.192 15.7387 98.6933 17.104 99.696C18.4907 100.699 19.184 102.117 19.184 103.952C19.184 105.189 18.8747 106.245 18.256 107.12C17.6587 107.973 16.8267 108.613 15.76 109.04ZM4.016 100.144V108.272H11.152C12.9653 108.272 14.3627 107.931 15.344 107.248C16.3253 106.544 16.816 105.531 16.816 104.208C16.816 102.885 16.3253 101.883 15.344 101.2C14.3627 100.496 12.9653 100.144 11.152 100.144H4.016ZM11.92 118.64C13.9253 118.64 15.44 118.299 16.464 117.616C17.488 116.933 18 115.867 18 114.416C18 111.621 15.9733 110.224 11.92 110.224H4.016V118.64H11.92Z" fill="#8E8684"></path>
  <path d="M36.397 120.784C33.4957 120.784 31.2343 119.952 29.613 118.288C27.9917 116.624 27.181 114.203 27.181 111.024V98.192H29.549V110.928C29.549 113.531 30.1357 115.472 31.309 116.752C32.4823 118.032 34.1783 118.672 36.397 118.672C38.637 118.672 40.3437 118.032 41.517 116.752C42.6903 115.472 43.277 113.531 43.277 110.928V98.192H45.581V111.024C45.581 114.203 44.7703 116.624 43.149 118.288C41.549 119.952 39.2983 120.784 36.397 120.784Z" fill="#8E8684"></path>
  <path d="M54.3167 98.192H56.6847V120.592H54.3167V98.192Z" fill="#8E8684"></path>
  <path d="M65.573 98.192H67.941V118.544H80.485V120.592H65.573V98.192Z" fill="#8E8684"></path>
  <path d="M86.0167 98.192H95.1367C97.5047 98.192 99.5954 98.672 101.409 99.632C103.222 100.571 104.63 101.893 105.633 103.6C106.635 105.285 107.137 107.216 107.137 109.392C107.137 111.568 106.635 113.509 105.633 115.216C104.63 116.901 103.222 118.224 101.409 119.184C99.5954 120.123 97.5047 120.592 95.1367 120.592H86.0167V98.192ZM95.0087 118.544C96.9714 118.544 98.6887 118.16 100.161 117.392C101.633 116.603 102.774 115.525 103.585 114.16C104.395 112.773 104.801 111.184 104.801 109.392C104.801 107.6 104.395 106.021 103.585 104.656C102.774 103.269 101.633 102.192 100.161 101.424C98.6887 100.635 96.9714 100.24 95.0087 100.24H88.3847V118.544H95.0087Z" fill="#8E8684"></path>
  <path d="M129.894 118.544V120.592H114.054V98.192H129.414V100.24H116.422V108.208H128.006V110.224H116.422V118.544H129.894Z" fill="#8E8684"></path>
  <path d="M152.357 120.592L147.237 113.392C146.661 113.456 146.063 113.488 145.445 113.488H139.429V120.592H137.061V98.192H145.445C148.303 98.192 150.543 98.8747 152.165 100.24C153.786 101.605 154.597 103.483 154.597 105.872C154.597 107.621 154.149 109.104 153.253 110.32C152.378 111.515 151.119 112.379 149.477 112.912L154.949 120.592H152.357ZM145.381 111.472C147.599 111.472 149.295 110.981 150.469 110C151.642 109.019 152.229 107.643 152.229 105.872C152.229 104.059 151.642 102.672 150.469 101.712C149.295 100.731 147.599 100.24 145.381 100.24H139.429V111.472H145.381Z" fill="#8E8684"></path>
  <path d="M167.962 120.784C166.298 120.784 164.697 120.517 163.161 119.984C161.647 119.451 160.473 118.747 159.641 117.872L160.57 116.048C161.38 116.859 162.457 117.52 163.801 118.032C165.145 118.523 166.532 118.768 167.962 118.768C169.967 118.768 171.471 118.405 172.473 117.68C173.476 116.933 173.977 115.973 173.977 114.8C173.977 113.904 173.7 113.189 173.145 112.656C172.612 112.123 171.951 111.717 171.161 111.44C170.372 111.141 169.273 110.821 167.865 110.48C166.18 110.053 164.836 109.648 163.833 109.264C162.831 108.859 161.967 108.251 161.242 107.44C160.538 106.629 160.186 105.531 160.186 104.144C160.186 103.013 160.484 101.989 161.081 101.072C161.679 100.133 162.596 99.3867 163.833 98.832C165.071 98.2773 166.607 98 168.441 98C169.721 98 170.97 98.1813 172.186 98.544C173.423 98.8853 174.489 99.3653 175.385 99.984L174.585 101.872C173.647 101.253 172.644 100.795 171.577 100.496C170.511 100.176 169.465 100.016 168.441 100.016C166.479 100.016 164.996 100.4 163.993 101.168C163.012 101.915 162.521 102.885 162.521 104.08C162.521 104.976 162.788 105.701 163.322 106.256C163.876 106.789 164.559 107.205 165.369 107.504C166.201 107.781 167.311 108.091 168.697 108.432C170.34 108.837 171.663 109.243 172.665 109.648C173.689 110.032 174.553 110.629 175.257 111.44C175.961 112.229 176.313 113.307 176.313 114.672C176.313 115.803 176.004 116.837 175.385 117.776C174.788 118.693 173.86 119.429 172.602 119.984C171.343 120.517 169.796 120.784 167.962 120.784Z" fill="#8E8684"></path>
</svg>
